<?xml version="1.0" encoding="utf-8"?>
<!-- Generator: Adobe Illustrator 25.2.1, SVG Export Plug-In . SVG Version: 6.00 Build 0)  -->
<svg version="1.1" id="Layer_1" xmlns="http://www.w3.org/2000/svg" xmlns:xlink="http://www.w3.org/1999/xlink" x="0px" y="0px"
	 viewBox="0 0 179 179" style="enable-background:new 0 0 179 179;" xml:space="preserve">
<style type="text/css">
	.st0{fill:#4975FF;}
</style>
<g>
	<path class="st0" d="M173.3,121c-7.9-3.6-16-6.6-24.4-9c-8.9-2.6-18-4.5-27.2-5.8c12-17.8,7.3-42-10.5-54c-17.8-12-42-7.3-54,10.5
		c-8.9,13.2-8.9,30.4,0,43.6c-9.2,1.3-18.2,3.3-27.2,5.8c-8.3,2.4-16.5,5.4-24.4,9c-10.2-27.1-6.6-57.5,9.6-81.5
		C25,25.1,38.7,13.8,54.7,7.1c27.9-11.8,59.8-8.7,84.9,8.2C154,25,165.2,38.7,172,54.7C180.9,75.8,181.4,99.5,173.3,121z"/>
	<path class="st0" d="M10.1,130.7c25.2-10.3,52.2-15.5,79.5-15.3c27.2-0.2,54.2,4.9,79.5,15.3c-15.4,29.7-46,48.3-79.5,48.3
		C56.1,179,25.5,160.4,10.1,130.7z"/>
</g>
</svg>
